<svg width="512" height="512" viewBox="0 0 512 512" fill="none" xmlns="http://www.w3.org/2000/svg">
  <rect width="512" height="512" rx="120" fill="#F7F3EE"/>
  <rect x="76" y="76" width="360" height="360" rx="92" fill="#FFFDF9"/>
  <path d="M165 186C165 166.118 181.118 150 201 150H311C330.882 150 347 166.118 347 186V335C347 354.882 330.882 371 311 371H201C181.118 371 165 354.882 165 335V186Z" fill="#EED9C6"/>
  <path d="M199 213C199 200.85 208.85 191 221 191H291C303.15 191 313 200.85 313 213V242H199V213Z" fill="#B56A32"/>
  <path d="M215 278C215 269.163 222.163 262 231 262H281C289.837 262 297 269.163 297 278V326C297 334.837 289.837 342 281 342H231C222.163 342 215 334.837 215 326V278Z" fill="#FFF8F1"/>
  <circle cx="256" cy="301" r="23" fill="#D79C6A"/>
  <path d="M235 150C235 138.954 243.954 130 255 130H257C268.046 130 277 138.954 277 150V173H235V150Z" fill="#1F1A17"/>
</svg>

